# xmcd
#
# Track frame offsets: 
#        150
#        24620
#        47242
#        78042
#        106850
#        132980
#        163660
#        187912
#        213310
#
# Disc length: 3058 seconds
#
# Revision: 3
# Processed by: cddbd v1.5.2PL0 Copyright (c) Steve Scherf et al.
# Submitted via: ExactAudioCopy v0.99pb5
#
DISCID=6d0bf009
DTITLE=John Scofield - Quiet
DYEAR=1996
DGENRE=Jazz
TTITLE0=After The Fact
TTITLE1=Tulle
TTITLE2=Away With Words
TTITLE3=Hold That Thought
TTITLE4=Door #3
TTITLE5=Bedside Manner
TTITLE6=Rolf And The Gang
TTITLE7=But for Love
TTITLE8=Away
EXTD=YEAR: 1996 ID3G: 8
EXTT0=
EXTT1=
EXTT2=
EXTT3=
EXTT4=
EXTT5=
EXTT6=
EXTT7=
EXTT8=
PLAYORDER=
